<svg width="200" height="200" viewBox="0 0 200 200" fill="none" xmlns="http://www.w3.org/2000/svg">
  <rect width="200" height="200" rx="20" fill="#4B5563"/>
  <path d="M94.9987 130.428C94.9987 133.295 92.7553 135.538 89.8887 135.538C87.022 135.538 84.7787 133.295 84.7787 130.428C84.7787 127.562 87.022 125.318 89.8887 125.318C92.7553 125.318 94.9987 127.562 94.9987 130.428Z" fill="#F9FAFB"/>
  <path d="M84.7786 75.9999H115.22V116.778C115.22 117.91 114.302 118.828 113.17 118.828H86.8291C85.6972 118.828 84.7786 117.91 84.7786 116.778V75.9999Z" fill="#F9FAFB"/>
  <path d="M101.193 94.7788C101.193 97.6454 98.9495 99.8888 96.0829 99.8888C93.2162 99.8888 90.9728 97.6454 90.9728 94.7788C90.9728 91.9121 93.2162 89.6688 96.0829 89.6688C98.9495 89.6688 101.193 91.9121 101.193 94.7788Z" fill="#F9FAFB"/>
  <path d="M115.22 69.167H84.7786C83.6468 69.167 82.7282 70.0856 82.7282 71.2174V116.778C82.7282 118.044 83.6468 118.962 84.7786 118.962H115.22C116.352 118.962 117.27 118.044 117.27 116.778V71.2174C117.27 70.0856 116.352 69.167 115.22 69.167ZM96.0829 76.8322C96.9145 76.8322 97.584 77.5017 97.584 78.3333C97.584 79.1649 96.9145 79.8344 96.0829 79.8344C95.2513 79.8344 94.5818 79.1649 94.5818 78.3333C94.5818 77.5017 95.2513 76.8322 96.0829 76.8322ZM101.938 116.778C101.938 117.609 101.268 118.278 100.436 118.278H86.5633C85.7318 118.278 85.0623 117.609 85.0623 116.778V75.9999C85.0623 75.1683 85.7318 74.4988 86.5633 74.4988H100.437C101.268 74.4988 101.938 75.1683 101.938 75.9999V116.778Z" fill="#F9FAFB"/>
  <path d="M89.8887 39.9999C89.8901 39.9999 89.8915 39.9999 89.8929 39.9999C93.3469 39.9999 96.0833 42.7363 96.0833 46.1903C96.0833 49.6443 93.3469 52.3807 89.8929 52.3807C89.8915 52.3807 89.8901 52.3807 89.8887 52.3807C86.4347 52.3807 83.6983 49.6443 83.6983 46.1903C83.6983 42.7363 86.4347 39.9999 89.8887 39.9999Z" fill="#F9FAFB"/>
  <path d="M89.8887 44.109C88.0264 44.109 86.5146 45.6208 86.5146 47.4831C86.5146 49.3454 88.0264 50.8571 89.8887 50.8571C91.751 50.8571 93.2628 49.3454 93.2628 47.4831C93.2628 45.6208 91.751 44.109 89.8887 44.109ZM89.8887 49.3969C88.6825 49.3969 87.6944 48.4088 87.6944 47.2026C87.6944 45.9963 88.6825 45.0082 89.8887 45.0082C91.0949 45.0082 92.083 45.9963 92.083 47.2026C92.083 48.4088 91.0949 49.3969 89.8887 49.3969Z" fill="#F9FAFB"/>
</svg>
